<svg width="46" height="47" viewBox="0 0 46 47" fill="none" xmlns="http://www.w3.org/2000/svg">
<path d="M10.6182 22.0695C1.64825 22.702 1.64825 35.7545 10.6182 36.387H14.2983" stroke="#2C57F4" stroke-width="3" stroke-miterlimit="10" stroke-linecap="round" stroke-linejoin="round"/>
<path d="M10.7141 22.0694C4.56164 4.95361 30.5132 -1.88888 33.484 16.0895C41.7832 17.1436 45.1375 28.2028 38.8508 33.7036C36.9341 35.4478 34.4616 36.4061 31.8741 36.3869H31.7015" stroke="#2C57F4" stroke-width="3" stroke-miterlimit="10" stroke-linecap="round" stroke-linejoin="round"/>
<path d="M32.5833 32.4386C32.5833 33.857 32.2766 35.1986 31.7016 36.3869C31.5483 36.7319 31.3758 37.0578 31.1842 37.3645C29.5358 40.1436 26.4883 42.022 23 42.022C19.5116 42.022 16.4641 40.1436 14.8158 37.3645C14.6241 37.0578 14.4517 36.7319 14.2983 36.3869C13.7233 35.1986 13.4166 33.857 13.4166 32.4386C13.4166 27.1486 17.71 22.8553 23 22.8553C28.29 22.8553 32.5833 27.1486 32.5833 32.4386Z" stroke="#2C57F4" stroke-width="3" stroke-miterlimit="10" stroke-linecap="round" stroke-linejoin="round"/>
<path d="M20.01 32.4386L21.9075 34.3361L25.99 30.5603" stroke="#2C57F4" stroke-width="3" stroke-linecap="round" stroke-linejoin="round"/>
</svg>
