<svg width="46" height="47" viewBox="0 0 46 47" fill="none" xmlns="http://www.w3.org/2000/svg">
<path d="M18.4 39.0895H27.6C35.2666 39.0895 38.3333 36.0228 38.3333 28.3561V19.1561C38.3333 11.4895 35.2666 8.42279 27.6 8.42279H18.4C10.7333 8.42279 7.66663 11.4895 7.66663 19.1561V28.3561C7.66663 36.0228 10.7333 39.0895 18.4 39.0895Z" stroke="#2C57F4" stroke-width="3" stroke-linecap="round" stroke-linejoin="round"/>
<path d="M20.125 33.3395H25.875C30.6666 33.3395 32.5833 31.4228 32.5833 26.6311V20.8811C32.5833 16.0895 30.6666 14.1728 25.875 14.1728H20.125C15.3333 14.1728 13.4166 16.0895 13.4166 20.8811V26.6311C13.4166 31.4228 15.3333 33.3395 20.125 33.3395Z" stroke="#2C57F4" stroke-width="3" stroke-linecap="round" stroke-linejoin="round"/>
<path d="M15.3525 8.42275V4.58942" stroke="#2C57F4" stroke-width="3" stroke-linecap="round" stroke-linejoin="round"/>
<path d="M23 8.42275V4.58942" stroke="#2C57F4" stroke-width="3" stroke-linecap="round" stroke-linejoin="round"/>
<path d="M30.6666 8.42275V4.58942" stroke="#2C57F4" stroke-width="3" stroke-linecap="round" stroke-linejoin="round"/>
<path d="M38.3334 16.0894H42.1667" stroke="#2C57F4" stroke-width="3" stroke-linecap="round" stroke-linejoin="round"/>
<path d="M38.3334 23.7561H42.1667" stroke="#2C57F4" stroke-width="3" stroke-linecap="round" stroke-linejoin="round"/>
<path d="M38.3334 31.4228H42.1667" stroke="#2C57F4" stroke-width="3" stroke-linecap="round" stroke-linejoin="round"/>
<path d="M30.6666 39.0894V42.9227" stroke="#2C57F4" stroke-width="3" stroke-linecap="round" stroke-linejoin="round"/>
<path d="M23.0192 39.0894V42.9227" stroke="#2C57F4" stroke-width="3" stroke-linecap="round" stroke-linejoin="round"/>
<path d="M15.3525 39.0894V42.9227" stroke="#2C57F4" stroke-width="3" stroke-linecap="round" stroke-linejoin="round"/>
<path d="M3.83337 16.0894H7.66671" stroke="#2C57F4" stroke-width="3" stroke-linecap="round" stroke-linejoin="round"/>
<path d="M3.83337 23.7561H7.66671" stroke="#2C57F4" stroke-width="3" stroke-linecap="round" stroke-linejoin="round"/>
<path d="M3.83337 31.4228H7.66671" stroke="#2C57F4" stroke-width="3" stroke-linecap="round" stroke-linejoin="round"/>
<path d="M23 19.3478L21.1984 22.4911C20.7959 23.1811 21.1217 23.7561 21.9267 23.7561H24.0734C24.8784 23.7561 25.2042 24.3311 24.8017 25.0211L23 28.1644" stroke="#2C57F4" stroke-width="3" stroke-linecap="round" stroke-linejoin="round"/>
</svg>
